<svg width="498" height="91" viewBox="0 0 498 91" fill="none" xmlns="http://www.w3.org/2000/svg">
<path d="M125.02 23.14V57.86C125.02 60.1 124.647 62.1533 123.9 64.02C123.2 65.84 122.15 67.4033 120.75 68.71C119.35 69.97 117.647 70.9733 115.64 71.72C113.68 72.42 111.44 72.77 108.92 72.77C106.493 72.77 104.347 72.4433 102.48 71.79C100.66 71.1367 99.0733 70.2033 97.72 68.99C96.4133 67.7767 95.34 66.33 94.5 64.65C93.66 62.97 93.0767 61.1033 92.75 59.05L102.69 57.09C103.483 61.3367 105.513 63.46 108.78 63.46C110.32 63.46 111.627 62.97 112.7 61.99C113.82 61.01 114.38 59.47 114.38 57.37V31.68H99.54V23.14H125.02ZM146.342 72.84C143.635 72.84 141.208 72.3967 139.062 71.51C136.962 70.6233 135.165 69.34 133.672 67.66C132.225 65.98 131.105 63.95 130.312 61.57C129.518 59.19 129.122 56.53 129.122 53.59C129.122 50.65 129.518 47.99 130.312 45.61C131.105 43.23 132.225 41.2233 133.672 39.59C135.165 37.91 136.962 36.6267 139.062 35.74C141.208 34.8533 143.635 34.41 146.342 34.41C149.048 34.41 151.452 34.8533 153.552 35.74C155.698 36.6267 157.495 37.91 158.942 39.59C160.435 41.2233 161.578 43.23 162.372 45.61C163.165 47.99 163.562 50.65 163.562 53.59C163.562 56.53 163.165 59.19 162.372 61.57C161.578 63.95 160.435 65.98 158.942 67.66C157.495 69.34 155.698 70.6233 153.552 71.51C151.452 72.3967 149.048 72.84 146.342 72.84ZM146.342 64.65C148.395 64.65 149.982 64.02 151.102 62.76C152.222 61.5 152.782 59.7033 152.782 57.37V49.88C152.782 47.5467 152.222 45.75 151.102 44.49C149.982 43.23 148.395 42.6 146.342 42.6C144.288 42.6 142.702 43.23 141.582 44.49C140.462 45.75 139.902 47.5467 139.902 49.88V57.37C139.902 59.7033 140.462 61.5 141.582 62.76C142.702 64.02 144.288 64.65 146.342 64.65ZM167.443 20.2H177.803V41.41H178.153C178.667 39.3567 179.833 37.6767 181.653 36.37C183.52 35.0633 185.643 34.41 188.023 34.41C192.69 34.41 196.213 36.0433 198.593 39.31C200.973 42.5767 202.163 47.3367 202.163 53.59C202.163 59.8433 200.973 64.6267 198.593 67.94C196.213 71.2067 192.69 72.84 188.023 72.84C186.81 72.84 185.667 72.6533 184.593 72.28C183.52 71.9533 182.54 71.4867 181.653 70.88C180.813 70.2267 180.09 69.48 179.483 68.64C178.877 67.7533 178.433 66.82 178.153 65.84H177.803V72H167.443V20.2ZM184.593 64.44C186.553 64.44 188.163 63.7633 189.423 62.41C190.73 61.01 191.383 59.1433 191.383 56.81V50.44C191.383 48.1067 190.73 46.2633 189.423 44.91C188.163 43.51 186.553 42.81 184.593 42.81C182.633 42.81 181 43.3 179.693 44.28C178.433 45.2133 177.803 46.52 177.803 48.2V59.05C177.803 60.73 178.433 62.06 179.693 63.04C181 63.9733 182.633 64.44 184.593 64.44ZM218.991 72.84C215.445 72.84 212.458 72.28 210.031 71.16C207.605 69.9933 205.435 68.36 203.521 66.26L209.611 60.1C210.918 61.5467 212.365 62.69 213.951 63.53C215.538 64.37 217.335 64.79 219.341 64.79C221.395 64.79 222.818 64.4867 223.611 63.88C224.405 63.2267 224.801 62.3633 224.801 61.29C224.801 59.5633 223.565 58.5367 221.091 58.21L217.101 57.72C208.841 56.6933 204.711 52.9133 204.711 46.38C204.711 44.6067 205.038 42.9967 205.691 41.55C206.391 40.0567 207.348 38.7967 208.561 37.77C209.821 36.6967 211.315 35.88 213.041 35.32C214.815 34.7133 216.798 34.41 218.991 34.41C220.905 34.41 222.585 34.55 224.031 34.83C225.525 35.0633 226.831 35.4367 227.951 35.95C229.118 36.4167 230.168 37.0233 231.101 37.77C232.081 38.47 233.038 39.2633 233.971 40.15L228.021 46.24C226.855 45.0733 225.525 44.1633 224.031 43.51C222.585 42.81 221.091 42.46 219.551 42.46C217.778 42.46 216.518 42.74 215.771 43.3C215.025 43.86 214.651 44.6067 214.651 45.54C214.651 46.52 214.908 47.29 215.421 47.85C215.981 48.3633 217.008 48.7367 218.501 48.97L222.631 49.53C230.705 50.6033 234.741 54.29 234.741 60.59C234.741 62.3633 234.368 63.9967 233.621 65.49C232.875 66.9833 231.801 68.29 230.401 69.41C229.048 70.4833 227.391 71.3233 225.431 71.93C223.518 72.5367 221.371 72.84 218.991 72.84ZM275.405 39.94H275.195L271.625 47.08L262.105 64.37L252.795 47.15L249.085 39.45H248.875V72H238.865V23.14H250.135L262.105 46.03H262.245L274.075 23.14H285.415V72H275.405V39.94ZM319.318 72C317.451 72 315.888 71.4167 314.628 70.25C313.415 69.0833 312.645 67.52 312.318 65.56H311.898C311.338 67.94 310.101 69.76 308.188 71.02C306.275 72.2333 303.918 72.84 301.118 72.84C297.431 72.84 294.608 71.86 292.648 69.9C290.688 67.94 289.708 65.35 289.708 62.13C289.708 58.2567 291.108 55.3867 293.908 53.52C296.755 51.6067 300.605 50.65 305.458 50.65H311.268V48.34C311.268 46.5667 310.801 45.1667 309.868 44.14C308.935 43.0667 307.371 42.53 305.178 42.53C303.125 42.53 301.491 42.9733 300.278 43.86C299.065 44.7467 298.061 45.75 297.268 46.87L291.108 41.41C292.601 39.2167 294.468 37.5133 296.708 36.3C298.995 35.04 302.075 34.41 305.948 34.41C311.175 34.41 315.095 35.5533 317.708 37.84C320.321 40.1267 321.628 43.4633 321.628 47.85V63.95H325.058V72H319.318ZM304.968 65.63C306.695 65.63 308.165 65.2567 309.378 64.51C310.638 63.7633 311.268 62.55 311.268 60.87V56.53H306.228C302.168 56.53 300.138 57.9067 300.138 60.66V61.71C300.138 63.0633 300.558 64.0667 301.398 64.72C302.238 65.3267 303.428 65.63 304.968 65.63ZM328.512 72V35.25H338.872V41.48H339.292C339.945 39.5667 341.088 37.91 342.722 36.51C344.355 35.11 346.618 34.41 349.512 34.41C353.292 34.41 356.138 35.67 358.052 38.19C360.012 40.71 360.992 44.3033 360.992 48.97V72H350.632V49.81C350.632 47.43 350.258 45.68 349.512 44.56C348.765 43.3933 347.435 42.81 345.522 42.81C344.682 42.81 343.865 42.9267 343.072 43.16C342.278 43.3467 341.555 43.6733 340.902 44.14C340.295 44.6067 339.805 45.19 339.432 45.89C339.058 46.5433 338.872 47.3133 338.872 48.2V72H328.512ZM393.871 72C392.004 72 390.441 71.4167 389.181 70.25C387.968 69.0833 387.198 67.52 386.871 65.56H386.451C385.891 67.94 384.654 69.76 382.741 71.02C380.828 72.2333 378.471 72.84 375.671 72.84C371.984 72.84 369.161 71.86 367.201 69.9C365.241 67.94 364.261 65.35 364.261 62.13C364.261 58.2567 365.661 55.3867 368.461 53.52C371.308 51.6067 375.158 50.65 380.011 50.65H385.821V48.34C385.821 46.5667 385.354 45.1667 384.421 44.14C383.488 43.0667 381.924 42.53 379.731 42.53C377.678 42.53 376.044 42.9733 374.831 43.86C373.618 44.7467 372.614 45.75 371.821 46.87L365.661 41.41C367.154 39.2167 369.021 37.5133 371.261 36.3C373.548 35.04 376.628 34.41 380.501 34.41C385.728 34.41 389.648 35.5533 392.261 37.84C394.874 40.1267 396.181 43.4633 396.181 47.85V63.95H399.611V72H393.871ZM379.521 65.63C381.248 65.63 382.718 65.2567 383.931 64.51C385.191 63.7633 385.821 62.55 385.821 60.87V56.53H380.781C376.721 56.53 374.691 57.9067 374.691 60.66V61.71C374.691 63.0633 375.111 64.0667 375.951 64.72C376.791 65.3267 377.981 65.63 379.521 65.63ZM437.084 74.66C437.084 76.62 436.734 78.3467 436.034 79.84C435.381 81.3333 434.284 82.5933 432.744 83.62C431.204 84.6933 429.151 85.4867 426.584 86C424.064 86.56 420.938 86.84 417.204 86.84C414.031 86.84 411.324 86.63 409.084 86.21C406.891 85.8367 405.094 85.2767 403.694 84.53C402.341 83.83 401.338 82.9433 400.684 81.87C400.078 80.8433 399.774 79.6533 399.774 78.3C399.774 76.2467 400.381 74.6367 401.594 73.47C402.808 72.3033 404.488 71.58 406.634 71.3V70.53C404.861 70.2033 403.531 69.4567 402.644 68.29C401.758 67.0767 401.314 65.6767 401.314 64.09C401.314 63.11 401.501 62.27 401.874 61.57C402.294 60.8233 402.808 60.1933 403.414 59.68C404.068 59.12 404.814 58.6767 405.654 58.35C406.494 58.0233 407.334 57.7667 408.174 57.58V57.3C405.934 56.2733 404.278 54.8733 403.204 53.1C402.131 51.28 401.594 49.18 401.594 46.8C401.594 43.0667 402.878 40.08 405.444 37.84C408.058 35.5533 412.024 34.41 417.344 34.41C419.771 34.41 421.848 34.6433 423.574 35.11V33.71C423.574 31.75 424.041 30.35 424.974 29.51C425.954 28.6233 427.331 28.18 429.104 28.18H434.914V35.88H426.794V36.3C428.941 37.3267 430.528 38.75 431.554 40.57C432.581 42.3433 433.094 44.42 433.094 46.8C433.094 50.4867 431.788 53.45 429.174 55.69C426.608 57.8833 422.664 58.98 417.344 58.98C414.964 58.98 412.794 58.7233 410.834 58.21C409.761 58.91 409.224 59.89 409.224 61.15C409.224 62.0367 409.551 62.7367 410.204 63.25C410.904 63.7167 412.048 63.95 413.634 63.95H424.274C428.754 63.95 431.998 64.8833 434.004 66.75C436.058 68.6167 437.084 71.2533 437.084 74.66ZM427.354 76.06C427.354 74.9867 426.934 74.17 426.094 73.61C425.254 73.05 423.784 72.77 421.684 72.77H409.084C408.618 73.2367 408.268 73.75 408.034 74.31C407.848 74.9167 407.754 75.5 407.754 76.06C407.754 77.4133 408.338 78.3933 409.504 79C410.671 79.6533 412.654 79.98 415.454 79.98H419.654C422.454 79.98 424.438 79.6533 425.604 79C426.771 78.3933 427.354 77.4133 427.354 76.06ZM417.344 52.19C419.398 52.19 420.914 51.77 421.894 50.93C422.921 50.0433 423.434 48.7833 423.434 47.15V46.31C423.434 44.6767 422.921 43.44 421.894 42.6C420.914 41.7133 419.398 41.27 417.344 41.27C415.291 41.27 413.751 41.7133 412.724 42.6C411.744 43.44 411.254 44.6767 411.254 46.31V47.15C411.254 48.7833 411.744 50.0433 412.724 50.93C413.751 51.77 415.291 52.19 417.344 52.19ZM453.107 72.84C450.307 72.84 447.811 72.3967 445.617 71.51C443.424 70.5767 441.557 69.2933 440.017 67.66C438.524 65.98 437.381 63.95 436.587 61.57C435.841 59.19 435.467 56.53 435.467 53.59C435.467 50.6967 435.841 48.0833 436.587 45.75C437.334 43.37 438.431 41.34 439.877 39.66C441.371 37.98 443.191 36.6967 445.337 35.81C447.484 34.8767 449.934 34.41 452.687 34.41C455.721 34.41 458.311 34.9233 460.457 35.95C462.651 36.9767 464.424 38.3533 465.777 40.08C467.177 41.8067 468.181 43.8133 468.787 46.1C469.441 48.34 469.767 50.6967 469.767 53.17V56.25H446.177V56.81C446.177 59.2367 446.831 61.1733 448.137 62.62C449.444 64.02 451.497 64.72 454.297 64.72C456.444 64.72 458.194 64.3 459.547 63.46C460.901 62.5733 462.161 61.5233 463.327 60.31L468.507 66.75C466.874 68.6633 464.727 70.1567 462.067 71.23C459.454 72.3033 456.467 72.84 453.107 72.84ZM452.897 42.04C450.797 42.04 449.141 42.74 447.927 44.14C446.761 45.4933 446.177 47.3133 446.177 49.6V50.16H459.057V49.53C459.057 47.29 458.544 45.4933 457.517 44.14C456.537 42.74 454.997 42.04 452.897 42.04ZM473.584 72V35.25H483.944V43.23H484.294C484.481 42.2033 484.807 41.2233 485.274 40.29C485.741 39.31 486.347 38.4467 487.094 37.7C487.887 36.9533 488.821 36.37 489.894 35.95C490.967 35.4833 492.227 35.25 493.674 35.25H495.494V44.91H492.904C489.871 44.91 487.607 45.3067 486.114 46.1C484.667 46.8933 483.944 48.3633 483.944 50.51V72H473.584Z" fill="black"/>
<path d="M62.2222 11H7.77778C3.5 11 0 14.5 0 18.7778V73.2222C0 77.5 3.5 81 7.77778 81H62.2222C66.5 81 70 77.5 70 73.2222V18.7778C70 14.5 66.5 11 62.2222 11ZM41.0667 24.7278C42.1944 23.6 44.0611 23.6 45.1889 24.7278L48.6111 28.15L52.0333 24.7278C53.1611 23.6 55.0278 23.6 56.1556 24.7278C57.2833 25.8556 57.2833 27.7222 56.1556 28.85L52.7333 32.2722L56.1556 35.6944C57.2833 36.8222 57.2833 38.6889 56.1556 39.8167C55.0278 40.9444 53.1611 40.9444 52.0333 39.8167L48.6111 36.4333L45.1889 39.8556C44.0611 40.9833 42.1944 40.9833 41.0667 39.8556C40.5242 39.3067 40.2201 38.5661 40.2201 37.7944C40.2201 37.0228 40.5242 36.2822 41.0667 35.7333L44.4889 32.3111L41.0667 28.8889C39.9 27.7222 39.9 25.8556 41.0667 24.7278ZM15.5556 29.3556H29.1667C30.7611 29.3556 32.0833 30.6778 32.0833 32.2722C32.0833 33.8667 30.7611 35.1889 29.1667 35.1889H15.5556C13.9611 35.1889 12.6389 33.8667 12.6389 32.2722C12.6389 30.6778 13.9611 29.3556 15.5556 29.3556ZM30.1389 61.5556H25.2778V66.4167C25.2778 68.0111 23.9556 69.3333 22.3611 69.3333C20.7667 69.3333 19.4444 68.0111 19.4444 66.4167V61.5556H14.5833C12.9889 61.5556 11.6667 60.2333 11.6667 58.6389C11.6667 57.0444 12.9889 55.7222 14.5833 55.7222H19.4444V50.8611C19.4444 49.2667 20.7667 47.9444 22.3611 47.9444C23.9556 47.9444 25.2778 49.2667 25.2778 50.8611V55.7222H30.1389C31.7333 55.7222 33.0556 57.0444 33.0556 58.6389C33.0556 60.2333 31.7333 61.5556 30.1389 61.5556ZM55.4167 66.4167H41.8056C40.2111 66.4167 38.8889 65.0944 38.8889 63.5C38.8889 61.9056 40.2111 60.5833 41.8056 60.5833H55.4167C57.0111 60.5833 58.3333 61.9056 58.3333 63.5C58.3333 65.0944 57.0111 66.4167 55.4167 66.4167ZM55.4167 56.6944H41.8056C40.2111 56.6944 38.8889 55.3722 38.8889 53.7778C38.8889 52.1833 40.2111 50.8611 41.8056 50.8611H55.4167C57.0111 50.8611 58.3333 52.1833 58.3333 53.7778C58.3333 55.3722 57.0111 56.6944 55.4167 56.6944Z" fill="#064E3B"/>
</svg>
