<?xml version="1.0" standalone="no"?>
<!DOCTYPE svg PUBLIC "-//W3C//DTD SVG 20010904//EN"
 "http://www.w3.org/TR/2001/REC-SVG-20010904/DTD/svg10.dtd">
<svg version="1.0" xmlns="http://www.w3.org/2000/svg"
 width="3984.000000pt" height="3984.000000pt" viewBox="0 0 3984.000000 3984.000000"
 preserveAspectRatio="xMidYMid meet">
<metadata>
Created by potrace 1.14, written by Peter Selinger 2001-2017
</metadata>
<g transform="translate(0.000000,3984.000000) scale(0.100000,-0.100000)"
fill="#000000" stroke="none">
<path d="M706 22683 c-1 -2 -47 -5 -102 -7 -54 -2 -117 -10 -139 -16 -62 -19
-156 -60 -172 -76 -8 -8 -19 -14 -24 -14 -5 0 -40 -30 -77 -67 -70 -69 -128
-157 -153 -229 -14 -42 -14 -41 -28 -99 -7 -26 -11 -804 -11 -2290 0 -1966 2
-2258 15 -2310 9 -33 17 -68 20 -77 7 -32 56 -121 92 -171 70 -95 232 -206
325 -222 17 -3 35 -8 40 -11 5 -3 48 -8 96 -10 48 -2 93 -6 100 -9 6 -2 12 -1
12 4 0 4 20 5 44 1 25 -4 52 -3 60 2 10 6 16 5 16 -2 0 -7 6 -8 16 -2 8 5 35
6 60 2 24 -4 44 -4 44 0 0 8 49 5 57 -3 2 -3 17 -2 32 3 16 4 34 4 41 0 7 -4
25 -4 40 0 15 4 33 4 40 0 7 -4 24 -5 38 -1 14 4 46 4 71 1 26 -3 58 -3 71 0
14 4 37 3 52 -1 15 -4 30 -4 33 0 2 4 24 5 49 1 24 -4 52 -3 60 2 10 6 16 5
16 -2 0 -7 6 -8 16 -2 8 5 35 6 60 2 24 -4 44 -4 44 0 0 4 20 4 44 0 25 -4 52
-3 60 2 10 6 16 5 16 -2 0 -7 6 -8 16 -2 8 5 35 6 60 2 24 -4 44 -4 44 0 0 8
49 5 57 -3 2 -3 17 -2 32 3 16 4 34 4 41 0 7 -4 25 -4 40 0 15 4 33 4 40 0 7
-4 24 -5 38 -1 14 4 46 4 71 1 26 -3 58 -3 71 0 14 4 37 3 52 -1 15 -4 30 -4
33 0 2 4 24 5 49 1 24 -4 52 -3 60 2 10 6 16 5 16 -2 0 -7 6 -8 16 -2 8 5 35
6 60 2 24 -4 44 -4 44 0 0 4 20 4 44 0 25 -4 52 -3 60 2 10 6 16 5 16 -2 0 -7
6 -8 16 -2 8 5 35 6 60 2 24 -4 44 -4 44 0 0 8 49 5 57 -3 2 -3 17 -2 32 3 16
4 34 4 41 0 7 -4 25 -4 40 0 15 4 33 4 40 0 7 -4 24 -5 38 -1 14 4 46 4 71 1
26 -3 58 -3 71 0 14 4 37 3 52 -1 15 -4 30 -4 33 0 2 4 24 5 49 1 24 -4 52 -3
60 2 10 6 16 5 16 -2 0 -7 6 -8 16 -2 8 5 35 6 60 2 24 -4 44 -4 44 0 0 4 20
4 44 0 25 -4 52 -3 60 2 10 6 16 5 16 -2 0 -7 6 -8 16 -2 8 5 35 6 60 2 24 -4
44 -4 44 0 0 8 49 5 57 -3 2 -3 17 -2 32 3 16 4 34 4 41 0 7 -4 25 -4 40 0 15
4 33 4 40 0 7 -4 24 -5 38 -1 14 4 46 4 71 1 26 -3 58 -3 71 0 14 4 37 3 52
-1 15 -4 30 -4 33 0 2 4 24 5 49 1 24 -4 52 -3 60 2 10 6 16 5 16 -2 0 -7 6
-8 16 -2 9 5 34 6 55 2 22 -4 41 -4 44 0 2 4 24 4 49 0 24 -4 52 -3 60 2 10 6
16 5 16 -2 0 -7 6 -8 16 -2 8 5 35 6 60 2 24 -4 44 -4 44 0 0 3 15 5 33 3 35
-4 38 -4 82 -4 17 1 37 0 45 0 111 -6 272 36 368 98 154 97 269 279 287 450 2
24 7 48 10 53 3 5 1 11 -4 14 -5 3 -6 21 -2 38 4 18 4 45 0 61 -4 15 -4 27 -1
27 4 0 6 33 4 72 -1 40 -2 79 -2 86 0 6 0 20 0 30 0 9 0 37 1 62 1 25 1 51 0
58 0 6 -1 19 -1 27 0 8 0 22 0 30 0 8 0 21 0 28 -1 6 -1 41 -1 77 1 36 1 72 0
80 0 8 1 38 1 65 1 28 1 55 0 60 -1 6 -1 15 0 20 5 24 2 113 -4 123 -3 6 -2
13 3 16 5 4 6 18 2 34 -5 15 -5 37 0 49 5 13 4 25 -1 28 -6 3 -6 15 0 30 6 15
6 27 -1 30 -5 4 -7 10 -4 15 5 8 9 116 5 135 -1 6 -1 14 0 20 1 5 1 30 1 55
-1 43 -1 60 -1 95 0 8 0 21 0 28 -1 6 -1 41 0 77 0 36 -1 82 -2 103 -2 21 0
43 3 49 4 6 3 24 -1 39 -5 16 -6 29 -2 29 4 0 7 45 7 100 0 55 -3 100 -7 100
-4 0 -3 11 2 25 6 15 6 27 0 30 -6 3 -6 15 0 30 6 15 6 27 -1 30 -5 4 -7 10
-4 15 8 12 10 128 3 135 -3 4 -3 19 2 34 4 15 4 34 -1 42 -4 8 -4 21 1 28 4 8
4 27 0 42 -5 16 -6 29 -2 29 4 0 7 45 7 100 0 55 -3 100 -7 100 -4 0 -3 11 2
25 6 15 6 27 0 30 -6 3 -6 15 0 30 6 15 6 27 -1 30 -5 4 -7 10 -4 15 8 12 10
128 3 135 -3 4 -3 19 2 34 4 15 4 34 -1 42 -4 8 -4 21 1 28 4 8 4 27 0 42 -5
16 -6 29 -2 29 4 0 7 45 7 100 0 55 -3 100 -7 100 -4 0 -3 11 2 25 6 15 6 27
0 30 -6 3 -6 15 0 30 6 15 6 27 -1 30 -5 4 -7 10 -4 15 8 12 10 128 3 135 -3
4 -3 19 2 34 4 15 4 34 -1 42 -4 8 -4 21 1 28 4 8 4 27 0 42 -5 16 -6 29 -2
29 4 0 7 45 7 100 0 55 -3 100 -7 100 -4 0 -3 11 2 25 6 15 6 27 0 30 -6 3 -6
15 0 30 6 15 6 27 -1 30 -5 4 -7 10 -4 15 8 12 10 128 3 135 -3 4 -3 19 2 34
4 15 4 34 -1 42 -4 8 -4 21 1 28 4 8 4 27 0 42 -5 16 -6 29 -2 29 4 0 6 15 5
32 -1 18 -2 33 -3 33 -1 0 -3 9 -4 20 -14 112 -41 194 -94 280 -40 65 -154
168 -229 208 -130 68 -200 79 -505 77 -49 -1 -95 -1 -103 0 -42 1 -55 1 -114
0 -35 0 -66 1 -68 4 -3 2 -17 1 -31 -3 -15 -4 -38 -5 -52 -1 -14 4 -35 3 -47
-1 -12 -5 -25 -4 -28 1 -3 5 -18 5 -33 1 -15 -4 -38 -5 -52 -1 -14 4 -35 3
-47 -1 -12 -5 -25 -4 -28 1 -3 5 -18 5 -33 1 -15 -4 -38 -5 -52 -1 -14 4 -35
3 -47 -1 -12 -5 -25 -4 -28 1 -3 5 -18 5 -33 1 -15 -4 -39 -4 -54 0 -15 4 -29
5 -32 2 -2 -3 -35 -4 -73 -4 -37 0 -110 1 -160 0 -90 0 -109 0 -135 2 -7 0
-71 0 -143 0 -71 0 -137 0 -145 0 -8 1 -44 0 -80 0 -83 -1 -231 -2 -247 -1 -7
0 -19 0 -25 1 -15 0 -250 0 -363 -1 -44 -1 -86 -1 -92 0 -7 0 -19 0 -25 1 -15
0 -250 0 -363 -1 -44 -1 -86 -1 -92 0 -7 0 -19 0 -25 1 -15 0 -250 0 -363 -1
-44 -1 -86 -1 -92 0 -58 2 -256 2 -283 0 -14 -1 -31 -1 -37 -1 -27 2 -42 2
-168 2 -71 -1 -161 0 -198 2 -38 1 -70 1 -71 0z m2849 -1061 c21 -10 104 -85
186 -166 l148 -148 141 141 c182 182 199 194 293 195 65 1 79 -2 122 -29 31
-19 61 -49 80 -79 26 -43 30 -58 29 -120 0 -46 -6 -82 -17 -103 -9 -17 -84
-100 -167 -183 l-151 -152 150 -150 c83 -83 158 -167 167 -187 22 -46 26 -143
8 -186 -52 -126 -202 -182 -320 -121 -30 15 -103 79 -189 166 -77 77 -142 140
-145 140 -4 0 -71 -65 -151 -145 -161 -162 -202 -188 -289 -188 -133 2 -233
105 -231 240 0 42 36 133 52 133 5 0 9 7 9 15 0 8 3 15 8 15 8 0 44 33 78 71
12 13 61 62 108 109 l86 85 -153 155 c-167 168 -191 204 -189 286 2 108 65
190 172 225 38 13 123 3 165 -19z m-1141 -427 c120 -48 182 -182 138 -295 -18
-45 -79 -120 -98 -120 -8 0 -14 -4 -14 -8 0 -5 -6 -9 -12 -10 -7 0 -29 -5 -48
-9 -19 -5 -294 -8 -610 -8 -627 2 -607 0 -678 60 -52 43 -80 109 -77 180 2 65
18 105 62 152 48 51 98 70 193 72 47 1 86 3 87 4 1 1 230 1 510 0 434 -2 514
-5 547 -18z m-519 -1501 c57 -28 100 -79 116 -138 7 -24 12 -129 13 -246 l1
-205 205 -1 c223 -2 271 -10 322 -52 30 -25 62 -60 64 -72 0 -3 6 -18 13 -35
48 -112 -36 -274 -155 -301 -16 -3 -121 -7 -234 -9 -113 -1 -208 -3 -211 -4
-4 0 -7 -97 -7 -215 0 -191 -2 -218 -20 -259 -77 -174 -301 -192 -409 -32 -31
46 -37 85 -39 295 -1 107 -2 200 -3 205 -1 7 -72 10 -203 10 -112 -1 -207 1
-213 4 -5 2 -20 6 -32 7 -13 2 -44 18 -70 36 -91 66 -121 179 -75 289 10 26
89 109 101 107 3 -1 19 4 36 11 19 8 103 13 245 14 l215 2 1 220 0 220 28 52
c17 31 47 64 75 85 25 18 46 31 46 30 0 -2 7 -1 15 2 54 19 110 12 175 -20z
m2627 -223 c184 -79 191 -334 11 -422 l-48 -23 -600 0 c-658 0 -619 -3 -694
60 -67 56 -94 161 -65 248 18 51 81 121 129 140 40 17 208 21 711 19 480 -2
514 -4 556 -22z m-19 -770 c92 -26 161 -121 161 -222 -1 -113 -80 -207 -190
-226 -27 -4 -297 -8 -600 -7 -598 0 -612 2 -678 56 -68 56 -104 184 -70 250 8
15 12 28 9 28 -3 0 6 16 22 36 35 46 88 80 142 91 24 4 293 8 599 8 434 -1
568 -4 605 -14z"/>
<path d="M13401 21940 c-8 -6 -8 -4126 0 -4135 4 -3 58 -5 120 -5 137 1 139 1
187 0 20 0 145 1 277 2 l240 3 0 242 c-1 266 6 296 44 195 62 -168 190 -317
345 -401 59 -32 209 -86 264 -94 17 -3 36 -8 41 -12 6 -3 11 -2 11 4 0 7 8 7
23 2 25 -9 205 -7 282 4 110 15 319 82 336 108 3 5 8 7 10 6 6 -4 114 66 151
98 132 115 258 306 319 488 8 22 18 43 24 47 5 4 7 8 3 8 -3 0 0 24 8 53 19
68 21 78 39 172 39 211 45 287 45 555 -1 197 -6 290 -25 428 -3 17 -7 47 -9
65 -8 63 -55 243 -84 322 -51 139 -143 309 -186 344 -9 7 -16 17 -16 21 0 36
-248 231 -305 239 -5 1 -19 8 -31 15 -17 12 -99 44 -129 50 -38 9 -127 26
-160 32 -72 12 -268 11 -345 -3 -284 -49 -517 -233 -606 -478 -12 -33 -28 -61
-35 -63 -12 -2 -14 130 -14 839 0 550 -3 843 -10 847 -12 8 -804 9 -814 2z
m1464 -1813 c100 -15 201 -70 281 -153 52 -55 122 -167 128 -206 1 -7 5 -18 8
-24 4 -6 11 -33 15 -60 10 -61 11 -776 1 -826 -32 -161 -124 -297 -252 -376
-33 -21 -62 -37 -65 -38 -3 0 -13 -3 -21 -6 -63 -24 -114 -32 -212 -31 -83 0
-205 20 -214 34 -3 5 -14 9 -24 9 -51 0 -175 90 -219 158 -65 102 -64 87 -65
637 -1 275 2 520 6 545 22 124 101 216 245 286 56 27 69 31 153 45 30 6 55 11
57 12 3 3 151 -2 178 -6z"/>
<path d="M7964 21367 l-1 -342 594 0 593 0 0 -1070 c-1 -1167 1 -1140 -58
-1253 -50 -100 -164 -181 -286 -206 -69 -15 -174 -13 -238 4 -78 21 -192 105
-236 175 -44 71 -106 230 -96 246 3 5 0 9 -6 9 -6 0 -10 6 -9 13 1 6 1 20 0
30 -1 22 10 24 -301 -38 -14 -3 -34 -7 -45 -9 -11 -3 -45 -10 -75 -15 -30 -6
-66 -13 -80 -16 -14 -3 -36 -7 -50 -10 -14 -3 -36 -7 -50 -10 -14 -3 -52 -10
-85 -16 -33 -6 -67 -13 -75 -14 -8 -2 -21 -4 -28 -4 -8 -1 -11 -8 -8 -18 3
-10 7 -36 10 -58 3 -22 16 -80 31 -129 108 -372 332 -644 640 -781 62 -27 133
-53 166 -61 11 -2 29 -6 42 -9 12 -3 42 -10 67 -15 25 -5 56 -12 70 -15 14 -3
63 -7 110 -10 194 -13 354 -4 497 25 32 7 65 14 73 15 8 2 15 4 15 5 0 1 8 3
17 5 33 6 93 28 106 38 6 5 12 6 12 3 0 -4 14 0 30 8 17 9 44 23 60 32 17 8
30 12 30 7 0 -4 4 -3 8 3 4 6 30 24 57 39 67 36 108 65 186 133 61 54 83 78
153 176 98 137 175 363 190 559 3 27 6 51 9 53 3 3 1 21 -3 40 -4 18 -5 34 -1
34 8 0 6 2764 -3 2778 -4 7 -317 10 -1019 10 l-1013 1 0 -342z"/>
<path d="M19110 19754 c0 -1854 1 -1954 18 -1955 9 -1 22 0 27 1 6 1 35 1 65
0 30 -1 66 -1 80 0 14 1 30 2 35 1 9 0 82 0 128 0 63 0 180 0 195 0 9 0 68 0
131 0 63 -1 116 1 118 2 1 2 3 587 3 1300 0 785 4 1297 9 1297 8 0 70 -110 71
-125 0 -6 154 -323 225 -465 69 -138 104 -203 116 -214 5 -6 9 -18 9 -27 0
-10 4 -19 8 -21 5 -1 32 -48 62 -103 29 -55 65 -122 80 -150 15 -27 48 -88 73
-135 25 -47 62 -116 84 -155 21 -38 46 -87 56 -107 10 -20 22 -40 27 -43 6 -3
10 -15 10 -25 0 -10 4 -20 8 -22 8 -2 94 -160 136 -245 6 -13 14 -23 19 -23 4
0 7 -6 7 -14 0 -17 49 -106 59 -106 4 0 19 24 34 53 15 28 41 77 58 107 18 30
50 89 72 130 22 41 51 92 64 112 12 21 23 40 23 44 0 3 17 36 39 72 35 61 83
149 133 242 10 19 31 58 47 85 31 57 70 127 149 270 30 55 68 123 83 150 15
28 51 97 80 155 29 58 60 113 68 123 8 9 12 17 8 17 -6 0 137 288 153 307 6 7
10 14 10 15 -1 2 3 15 9 30 17 45 31 43 31 -4 1 -24 1 -602 2 -1285 l0 -1243
47 -1 c25 0 82 0 126 1 44 1 91 1 105 0 14 -1 32 -2 40 -1 8 0 94 0 190 0 96
-1 182 -1 190 0 8 0 35 1 60 1 l45 0 -2 1948 c0 1071 -2 1950 -2 1954 -1 4
-202 7 -448 7 -425 -1 -449 -2 -465 -19 -10 -11 -18 -24 -18 -29 0 -6 -14 -33
-30 -62 -17 -28 -32 -56 -33 -63 -1 -6 -4 -13 -7 -16 -3 -3 -30 -54 -61 -115
-175 -341 -233 -451 -243 -457 -6 -4 -8 -8 -3 -8 4 0 -16 -44 -44 -97 -86
-161 -89 -167 -89 -180 0 -6 -4 -13 -8 -15 -4 -1 -25 -39 -47 -83 -22 -44 -42
-82 -45 -85 -3 -3 -34 -63 -70 -135 -35 -71 -71 -138 -79 -147 -8 -10 -10 -18
-6 -18 4 0 0 -9 -10 -20 -10 -11 -15 -20 -10 -20 4 0 2 -6 -4 -14 -6 -7 -30
-51 -53 -97 -23 -46 -47 -87 -52 -91 -6 -4 -8 -8 -3 -8 4 0 0 -11 -9 -25 -9
-14 -19 -25 -23 -25 -3 0 -24 37 -46 83 -22 45 -42 84 -46 87 -3 3 -27 48 -54
100 -27 52 -63 123 -81 158 -18 35 -38 70 -44 78 -7 8 -9 14 -5 14 4 0 3 6 -2
13 -10 12 -60 104 -163 302 -28 55 -57 106 -62 113 -6 6 -7 12 -3 12 4 0 2 6
-4 14 -7 8 -34 57 -60 108 -114 222 -146 283 -151 288 -3 3 -6 12 -8 20 -2 8
-9 22 -16 30 -6 8 -32 56 -56 105 -25 50 -48 92 -52 93 -5 2 -8 12 -8 23 0 10
-3 19 -7 19 -5 0 -21 29 -38 65 -16 35 -33 65 -37 65 -5 0 -8 9 -8 20 0 19
-10 19 -455 19 l-455 -1 0 -1954z"/>
<path d="M34205 21293 c-155 -28 -260 -115 -295 -244 -18 -65 -21 -89 -24
-194 -1 -52 -5 -97 -8 -100 -3 -3 -17 -1 -31 4 -14 5 -42 12 -64 16 -21 3 -50
8 -63 10 -60 12 -178 19 -335 19 -231 -1 -331 -11 -532 -58 -47 -11 -156 -53
-225 -86 -174 -86 -324 -235 -405 -402 -13 -26 -23 -50 -23 -53 -1 -2 -7 -20
-15 -39 -8 -19 -20 -56 -26 -83 -10 -46 -12 -58 -24 -128 -7 -41 -7 -219 0
-280 5 -42 12 -78 39 -180 5 -16 17 -47 37 -92 10 -24 19 -47 19 -53 0 -5 5
-10 10 -10 6 0 10 -5 10 -12 0 -17 77 -116 134 -173 46 -45 165 -127 239 -165
15 -7 27 -18 27 -24 0 -6 -35 -22 -78 -34 -109 -33 -133 -42 -169 -64 -18 -11
-33 -17 -33 -13 0 3 -6 1 -12 -4 -149 -121 -196 -175 -227 -261 -30 -85 -34
-210 -8 -300 2 -8 8 -28 12 -45 14 -52 58 -126 107 -180 61 -67 150 -115 261
-139 25 -6 28 -11 25 -39 -3 -28 -7 -33 -43 -39 -77 -15 -100 -21 -150 -37
-22 -8 -42 -17 -45 -20 -3 -3 -27 -17 -55 -31 -67 -34 -165 -132 -197 -200
-84 -174 -69 -428 34 -575 55 -80 157 -158 281 -215 58 -26 200 -73 257 -84
14 -3 36 -8 50 -11 14 -3 42 -7 62 -10 21 -2 41 -6 45 -8 5 -3 33 -8 63 -11
30 -4 71 -9 90 -11 137 -18 645 -25 805 -11 39 3 94 8 123 11 50 4 67 6 147
20 17 3 46 8 65 11 148 23 370 95 467 150 26 15 58 32 70 38 13 6 23 14 23 19
0 4 5 7 10 7 19 0 135 108 176 165 16 22 31 42 35 45 19 17 101 228 93 241 -2
4 0 10 5 14 5 3 10 13 9 23 0 9 3 37 7 62 9 57 10 272 1 325 -12 69 -29 140
-38 150 -4 5 -8 15 -8 21 0 7 -5 25 -12 41 -6 15 -12 30 -12 33 -2 6 -27 46
-65 104 -89 135 -257 245 -446 292 -16 4 -32 8 -35 9 -24 7 -155 27 -195 30
-27 2 -50 4 -50 5 0 1 -250 3 -555 4 -664 3 -688 6 -762 98 -25 30 -30 47 -35
109 -5 63 -2 82 17 127 12 28 40 68 62 88 42 37 37 37 126 19 13 -2 31 -6 40
-9 9 -3 37 -8 62 -10 25 -3 65 -8 90 -12 25 -3 90 -7 145 -9 55 -1 105 -4 110
-5 6 -1 12 -2 15 -1 3 1 43 4 90 6 81 3 208 14 240 20 8 1 33 6 55 9 22 4 47
8 55 11 8 2 27 6 42 9 48 8 205 64 260 92 15 8 31 14 34 13 4 0 10 3 13 8 3 4
32 25 64 46 191 125 329 344 373 592 17 98 8 332 -18 430 -6 22 -11 45 -13 50
-1 6 -7 23 -13 38 -7 16 -12 32 -12 36 0 13 -83 166 -94 173 -6 4 -8 8 -3 8 4
0 -1 8 -10 18 -10 11 -41 43 -69 73 -28 30 -64 63 -79 74 -16 11 -34 26 -41
33 -7 6 -15 12 -18 12 -18 0 -123 72 -123 85 0 14 35 15 324 13 l323 -3 1 25
c4 106 3 590 -1 591 -3 1 -120 2 -261 3 -171 1 -278 -2 -324 -11z m-655 -1048
c5 -3 19 -8 30 -11 11 -2 28 -6 39 -8 37 -8 104 -48 145 -86 84 -77 116 -187
109 -364 -4 -81 -36 -206 -54 -206 -5 0 -9 -6 -9 -13 0 -34 -131 -128 -200
-145 -114 -27 -273 -35 -363 -17 -18 4 -44 8 -58 10 -53 6 -157 65 -198 111
-67 76 -84 136 -85 294 0 142 4 169 34 237 45 103 164 180 305 200 22 3 42 7
43 8 7 6 251 -3 262 -10z m390 -2519 c8 -6 25 -11 38 -12 14 -2 52 -17 86 -33
89 -45 125 -112 121 -222 -5 -147 -110 -240 -310 -274 -11 -2 -36 -7 -55 -11
-50 -9 -713 -13 -785 -4 -116 15 -160 22 -170 28 -5 4 -15 7 -22 8 -7 1 -36
14 -65 28 -108 52 -150 116 -154 233 -3 97 18 167 73 240 l24 31 602 -1 c354
-1 608 -6 617 -11z"/>
<path d="M11567 20804 c-1 -1 -29 -5 -62 -8 -285 -27 -558 -152 -751 -344 -44
-43 -90 -93 -104 -111 -14 -19 -31 -40 -37 -47 -7 -7 -13 -15 -13 -18 0 -3
-15 -30 -34 -59 -32 -50 -65 -117 -112 -227 -10 -24 -19 -47 -19 -50 -1 -3 -8
-27 -18 -55 -16 -47 -45 -166 -53 -210 -11 -67 -15 -97 -21 -155 -10 -86 -10
-430 0 -500 5 -30 10 -71 11 -90 3 -34 6 -47 28 -140 83 -353 250 -625 493
-807 56 -42 277 -166 288 -162 1 1 40 -10 87 -24 47 -14 103 -29 125 -33 22
-4 47 -9 55 -10 83 -16 370 -23 475 -11 51 6 200 33 200 37 0 1 9 3 20 5 90
13 309 120 420 204 69 52 195 176 195 191 0 5 4 10 8 10 11 0 132 184 160 245
36 76 83 197 89 224 2 14 7 29 11 35 3 6 7 16 9 21 1 6 7 33 13 60 11 49 13
60 24 120 14 78 17 101 22 173 12 154 6 417 -11 515 -9 49 -14 79 -22 126 -4
25 -7 48 -8 51 -1 3 -9 32 -20 65 -10 33 -19 66 -21 73 -5 29 -69 180 -102
242 -55 103 -133 208 -224 300 -80 82 -99 98 -191 160 -38 25 -165 94 -177 95
-4 1 -46 15 -120 43 -8 3 -18 6 -22 7 -5 2 -11 4 -15 5 -5 1 -12 3 -18 4 -5 1
-17 5 -25 8 -15 7 -61 16 -115 22 -16 3 -30 5 -30 6 0 7 -381 21 -388 14z
m223 -660 c66 -2 200 -46 200 -65 0 -5 6 -9 13 -9 28 0 117 -103 152 -174 60
-124 67 -183 67 -606 0 -206 -3 -400 -6 -430 -6 -54 -13 -95 -16 -95 -2 0 -8
-22 -12 -46 -2 -9 -18 -45 -35 -80 -67 -136 -185 -218 -348 -244 -46 -8 -171
-7 -206 1 -13 3 -35 7 -49 10 -58 12 -153 66 -204 117 -76 76 -122 171 -143
297 -3 19 -7 221 -8 448 -2 326 1 425 12 470 8 31 16 68 19 82 3 14 21 54 40
89 83 151 225 235 404 240 41 1 77 4 79 7 3 2 7 1 10 -3 3 -5 17 -8 31 -9z"/>
<path d="M17359 20806 c-3 -3 -27 -8 -54 -11 -28 -4 -90 -16 -140 -28 -107
-25 -95 -22 -120 -32 -11 -4 -49 -19 -85 -33 -74 -29 -141 -64 -187 -98 -17
-13 -35 -24 -38 -24 -14 0 -176 -168 -205 -211 -104 -161 -150 -315 -151 -512
-1 -108 6 -164 32 -269 19 -76 94 -238 110 -238 5 0 9 -5 9 -11 0 -19 131
-143 195 -185 33 -21 63 -43 66 -47 3 -5 8 -8 10 -6 2 1 27 -8 54 -21 131 -60
272 -101 425 -125 14 -2 41 -6 60 -9 19 -3 64 -9 100 -12 64 -7 90 -10 100
-14 3 -1 9 -2 13 -1 19 3 220 -31 256 -44 66 -23 117 -62 146 -111 63 -108 12
-279 -101 -337 -79 -40 -289 -61 -434 -43 -210 26 -425 139 -593 310 l-57 59
-245 -247 -244 -247 63 -62 c79 -79 133 -127 143 -127 5 0 14 -9 21 -20 7 -11
19 -20 26 -20 8 0 16 -4 18 -9 5 -14 135 -95 224 -140 101 -50 255 -100 364
-116 14 -3 34 -6 45 -9 91 -19 411 -27 540 -12 124 13 172 22 270 50 159 46
342 134 433 209 75 62 185 182 219 241 48 81 101 211 109 266 1 8 7 37 12 64
5 26 9 66 8 87 -1 21 2 39 6 39 5 0 6 5 3 10 -4 6 -8 43 -11 83 -2 40 -5 79
-7 87 -2 8 -7 33 -12 55 -20 103 -105 264 -180 340 -36 37 -160 135 -170 135
-4 0 -19 8 -33 18 -15 10 -43 25 -62 32 -19 7 -41 18 -49 24 -7 5 -18 11 -25
12 -6 1 -40 12 -76 24 -36 12 -73 23 -82 26 -10 2 -28 7 -40 10 -30 8 -232 43
-283 49 -97 12 -122 16 -149 21 -16 4 -48 8 -70 9 -74 6 -190 35 -244 62 -98
48 -143 167 -108 286 35 119 161 181 361 178 137 -2 192 -11 302 -51 127 -47
303 -153 358 -217 11 -13 26 -23 33 -23 7 0 85 75 175 166 89 92 192 197 230
234 37 37 67 72 67 77 0 6 -23 30 -51 54 -28 24 -59 51 -69 59 -9 8 -30 25
-46 37 -16 12 -50 37 -75 56 -26 19 -57 41 -70 47 -13 7 -26 16 -29 20 -12 16
-248 112 -309 125 -11 3 -31 7 -43 10 -13 3 -48 10 -78 15 -30 6 -66 12 -80
15 -86 18 -440 28 -478 14 -15 -6 -21 -5 -17 1 6 10 2 14 -6 6z"/>
<path d="M24317 20804 c-1 -1 -36 -5 -77 -8 -315 -25 -577 -143 -785 -351 -73
-72 -145 -159 -145 -173 0 -6 -6 -12 -12 -15 -14 -4 8 -27 108 -113 31 -27 71
-62 88 -79 18 -16 59 -52 90 -80 32 -27 76 -66 97 -85 21 -19 52 -47 68 -62
l29 -26 54 61 c29 34 69 75 88 92 19 16 42 37 51 46 38 37 163 109 191 110 4
0 22 5 40 10 66 19 106 23 228 22 96 -1 140 -6 187 -21 161 -53 246 -157 278
-342 6 -34 8 -270 3 -276 -3 -2 -157 -6 -344 -8 -186 -2 -357 -7 -379 -10 -22
-3 -60 -8 -83 -12 -24 -3 -54 -8 -65 -10 -12 -3 -33 -6 -47 -8 -14 -2 -45 -9
-70 -16 -25 -7 -46 -12 -47 -11 -8 2 -172 -63 -226 -90 -61 -30 -161 -92 -183
-114 -7 -6 -26 -23 -43 -37 -46 -39 -125 -148 -155 -214 -82 -178 -100 -406
-51 -648 3 -16 9 -34 13 -40 3 -6 8 -19 9 -30 5 -33 65 -149 103 -201 114
-154 252 -246 447 -296 96 -24 159 -31 303 -32 141 -2 211 6 315 34 44 11 90
23 103 26 12 3 22 10 22 16 0 6 3 7 6 4 6 -6 69 25 140 69 16 9 63 52 105 94
55 57 85 99 113 156 21 44 42 87 47 96 5 10 9 26 9 37 0 22 27 54 40 46 5 -3
11 -24 15 -48 8 -47 72 -205 92 -225 7 -7 13 -17 13 -21 0 -13 111 -120 131
-126 10 -4 19 -10 19 -15 0 -20 199 -82 255 -79 11 1 117 1 235 0 118 0 226 1
240 2 l25 2 0 317 c0 203 -4 319 -10 321 -5 2 -67 3 -137 2 l-128 -1 0 676
c-1 669 -2 759 -13 816 -4 16 -9 45 -11 64 -18 119 -69 249 -139 359 -113 174
-309 313 -532 375 -198 56 -288 68 -548 71 -92 0 -168 0 -170 -1z m578 -1776
c8 -7 8 -348 0 -412 -6 -55 -48 -137 -91 -175 -35 -32 -144 -96 -144 -84 0 3
-7 0 -15 -7 -8 -7 -15 -9 -15 -6 0 4 -8 2 -17 -3 -33 -17 -88 -24 -208 -24
-131 -1 -167 4 -235 34 -77 34 -116 81 -147 175 -17 52 -12 242 8 296 42 115
146 182 319 205 25 3 46 6 47 7 7 6 492 0 498 -6z"/>
<path d="M27857 20804 c-1 -2 -27 -5 -57 -8 -30 -3 -70 -10 -88 -15 -18 -5
-33 -10 -35 -10 -22 0 -139 -50 -187 -80 -46 -29 -163 -139 -225 -213 -21 -25
-117 -208 -109 -208 3 0 -1 -7 -10 -15 -34 -34 -36 -19 -36 235 l0 250 -62 1
c-35 1 -67 0 -73 -1 -5 -1 -14 -2 -20 -2 -5 1 -50 1 -100 2 -288 2 -382 2
-395 1 -8 0 -52 0 -96 0 -80 0 -82 -1 -83 -26 -2 -43 -2 -49 2 -88 3 -20 1
-40 -4 -43 -5 -3 -7 -9 -4 -14 8 -13 10 -138 3 -146 -4 -3 -2 -19 3 -36 5 -20
5 -36 -1 -43 -5 -7 -7 -14 -5 -17 5 -5 7 -113 3 -148 -1 -9 2 -27 5 -42 4 -15
3 -29 -2 -32 -4 -3 -5 -23 -1 -44 4 -21 3 -48 -1 -60 -5 -12 -5 -23 -1 -26 9
-6 8 -48 -1 -63 -4 -7 -4 -14 1 -17 9 -5 9 -47 -1 -63 -4 -7 -4 -14 1 -17 9
-5 9 -47 -1 -63 -4 -7 -4 -14 1 -17 9 -5 9 -47 -1 -63 -4 -7 -4 -14 1 -17 9
-5 9 -47 -1 -63 -4 -7 -4 -14 1 -17 9 -5 9 -47 -1 -63 -4 -7 -4 -14 1 -17 9
-5 9 -47 -1 -63 -4 -7 -4 -14 1 -17 5 -3 7 -24 5 -48 -5 -57 -5 -57 0 -101 3
-20 1 -40 -4 -43 -5 -3 -7 -9 -4 -14 8 -13 10 -138 3 -146 -4 -3 -2 -19 3 -36
5 -20 5 -36 -1 -43 -5 -7 -7 -14 -5 -17 8 -7 10 -137 3 -144 -4 -3 -2 -19 3
-36 5 -20 5 -36 -2 -44 -7 -8 -7 -14 0 -18 7 -4 7 -15 1 -30 -5 -13 -6 -26 -4
-29 10 -10 12 -77 3 -83 -5 -3 -7 -9 -4 -14 8 -13 10 -138 3 -146 -4 -3 -2
-19 3 -36 5 -20 5 -36 -1 -43 -5 -7 -7 -14 -5 -17 8 -7 10 -137 3 -144 -4 -3
-2 -19 3 -36 5 -18 5 -36 1 -42 -7 -10 -8 -32 -2 -46 6 -16 5 -62 -2 -66 -5
-3 -5 -11 -1 -17 8 -13 7 -152 -1 -165 -6 -10 -6 -10 94 -11 41 0 86 -1 100
-2 14 0 32 -1 40 0 8 0 146 0 307 0 258 0 316 5 298 23 -7 7 -6 1915 1 1956
12 76 65 166 134 230 47 43 142 90 200 99 14 2 32 6 40 10 23 9 68 14 140 17
90 3 240 -31 240 -55 0 -5 6 -9 14 -9 19 0 72 -62 99 -118 22 -43 33 -79 54
-167 4 -16 9 -469 10 -1005 2 -536 5 -975 6 -977 2 -2 158 -3 237 -2 8 0 38 0
65 0 28 0 58 0 68 0 44 0 179 0 195 0 9 0 60 0 112 0 52 1 107 0 123 0 26 -1
34 11 27 44 -4 23 -5 115 0 115 3 0 4 19 2 42 -3 48 -4 150 -1 164 1 5 1 11 0
14 -6 17 -5 130 1 130 4 0 4 10 -1 22 -4 12 -5 39 -1 60 4 21 4 38 1 38 -4 0
-4 25 -1 55 3 30 3 55 0 55 -6 0 -3 88 4 107 3 7 1 15 -4 18 -5 3 -5 18 0 34
4 16 6 32 3 35 -4 3 -5 50 -4 103 2 54 2 105 2 113 -2 58 0 134 5 141 3 5 1 9
-3 9 -5 0 -7 17 -6 38 1 20 2 66 2 102 1 111 2 133 7 142 3 4 1 8 -4 8 -4 0
-6 23 -2 50 4 28 4 53 1 55 -3 3 -4 29 -2 58 1 29 2 57 2 62 1 31 -11 263 -15
280 -2 11 -7 43 -10 70 -4 28 -9 57 -11 65 -2 8 -7 31 -10 50 -17 101 -95 287
-159 380 -118 173 -298 293 -488 324 -18 4 -46 9 -63 12 -32 6 -262 13 -268 8z"/>
<path d="M30276 20803 c-2 -2 -33 -6 -68 -8 -57 -3 -85 -7 -158 -20 -71 -14
-170 -40 -192 -51 -15 -8 -29 -14 -30 -13 -25 8 -248 -120 -323 -186 -109 -95
-245 -247 -245 -273 0 -5 30 -36 66 -69 36 -32 88 -78 115 -103 27 -25 61 -55
76 -67 15 -12 51 -43 78 -68 28 -26 73 -66 101 -91 l52 -44 17 27 c37 56 201
208 253 234 15 7 34 18 42 25 14 11 59 25 70 22 3 -1 14 4 25 10 31 16 99 25
215 26 175 3 290 -33 372 -116 39 -41 86 -116 95 -153 1 -5 7 -30 14 -55 6
-25 12 -107 13 -182 l2 -138 -85 0 c-199 0 -618 -9 -641 -13 -14 -3 -47 -8
-73 -12 -27 -4 -57 -8 -67 -10 -9 -2 -33 -6 -51 -9 -19 -3 -59 -13 -89 -22
-30 -8 -62 -16 -70 -18 -8 -1 -28 -8 -45 -14 -16 -7 -55 -22 -85 -34 -30 -12
-57 -24 -60 -27 -3 -3 -23 -15 -45 -26 -90 -44 -207 -143 -267 -226 -60 -82
-114 -215 -135 -333 -9 -51 -9 -298 -1 -346 19 -104 38 -161 81 -250 46 -93
63 -116 152 -206 69 -69 169 -132 270 -169 65 -24 90 -30 155 -42 127 -22 340
-22 480 0 72 12 240 67 240 79 0 5 6 8 13 8 22 0 129 73 178 121 81 79 153
200 181 303 6 25 18 48 25 51 14 5 30 -27 39 -73 5 -28 42 -126 58 -155 46
-87 152 -196 216 -224 8 -3 33 -14 55 -24 73 -32 162 -42 355 -38 8 0 64 -1
123 -1 60 -1 111 0 113 3 3 3 18 1 34 -3 20 -6 32 -4 40 5 7 8 9 115 8 326
l-3 314 -130 1 c-71 1 -132 2 -135 3 -3 0 -6 306 -6 679 -1 794 -2 815 -50
978 -69 241 -211 421 -425 538 -54 30 -179 83 -214 90 -5 2 -28 8 -51 14 -46
13 -181 38 -264 48 -59 7 -408 13 -414 7z m585 -1772 c6 -27 3 -377 -3 -416
-16 -108 -81 -188 -193 -240 -102 -48 -185 -63 -317 -60 -62 1 -124 6 -138 9
-14 4 -30 8 -35 9 -27 6 -103 52 -126 77 -56 58 -76 134 -73 270 2 105 15 155
55 209 25 35 119 108 131 101 2 -1 17 4 33 10 67 26 179 36 418 36 136 0 248
-2 248 -5z"/>
<path d="M36056 20803 c-1 -2 -23 -5 -47 -8 -40 -5 -98 -14 -124 -20 -5 -2
-23 -5 -40 -8 -55 -10 -181 -55 -271 -98 -49 -23 -92 -41 -96 -41 -5 1 -8 -2
-8 -7 0 -5 -8 -12 -18 -15 -10 -4 -27 -14 -38 -24 -10 -9 -37 -29 -60 -45
-130 -88 -270 -268 -359 -459 -28 -63 -82 -214 -89 -251 -1 -7 -5 -21 -9 -32
-3 -11 -8 -33 -11 -49 -3 -16 -10 -52 -15 -80 -25 -126 -45 -456 -28 -472 3
-4 2 -14 -3 -24 -5 -10 -8 -19 -5 -21 2 -2 7 -36 10 -74 4 -39 8 -83 10 -100
3 -32 13 -94 21 -135 3 -14 7 -34 9 -45 7 -47 51 -193 75 -250 114 -272 255
-449 473 -589 141 -91 299 -158 427 -182 14 -2 45 -9 70 -14 103 -23 410 -31
560 -16 80 9 246 42 320 64 30 9 57 17 60 17 3 1 18 7 33 13 16 7 31 12 34 12
18 0 231 107 254 126 8 8 19 14 23 14 7 0 48 29 106 75 14 11 55 49 92 85 l67
64 -17 28 c-9 15 -20 28 -25 28 -4 0 -5 5 -2 10 3 6 2 10 -3 10 -5 0 -29 26
-53 58 -24 31 -51 64 -59 72 -9 8 -29 33 -46 55 -34 47 -50 66 -86 108 -15 18
-47 58 -70 89 -24 32 -45 57 -48 58 -3 0 -24 -17 -46 -37 -265 -248 -392 -305
-679 -306 -238 -2 -381 47 -491 166 -103 111 -150 240 -158 440 l-3 67 943 0
c748 0 944 3 945 13 7 154 -8 500 -24 552 -3 11 -8 36 -11 55 -13 86 -51 235
-66 262 -6 10 -10 25 -10 33 0 41 -144 309 -194 361 -6 6 -22 26 -36 44 -24
32 -72 80 -135 135 -43 37 -216 152 -223 147 -1 -1 -24 9 -51 23 -97 49 -284
101 -401 111 -56 6 -370 11 -374 7z m315 -622 c60 -13 157 -65 190 -103 35
-40 109 -155 112 -175 1 -10 6 -23 9 -29 4 -6 9 -21 12 -35 3 -13 7 -35 11
-49 14 -64 26 -213 18 -235 -2 -7 -178 -9 -506 -8 -276 1 -507 2 -513 2 -16 1
-3 231 16 254 1 1 3 9 5 17 35 158 196 325 341 355 118 24 208 26 305 6z"/>
<path d="M37934 20742 c-34 -2 -43 -7 -45 -25 -6 -35 -4 -2906 2 -2911 3 -3
59 -6 125 -5 136 0 123 0 249 0 52 0 101 0 108 0 10 0 119 0 240 0 9 0 33 -1
53 -2 19 0 38 2 42 6 4 4 7 406 8 893 1 488 4 903 8 922 34 174 113 252 311
305 105 28 172 35 409 40 104 2 190 6 192 8 2 2 4 14 4 28 1 40 2 163 1 179 0
8 0 44 0 80 0 36 0 72 0 80 0 8 0 44 0 80 1 75 1 62 -2 168 -1 45 1 85 4 88 3
3 2 17 -2 32 l-8 27 -134 1 c-84 0 -148 -4 -171 -12 -20 -7 -39 -10 -41 -7 -3
3 -12 1 -19 -3 -7 -5 -15 -9 -18 -9 -3 0 -27 -9 -55 -20 -117 -45 -240 -138
-301 -227 -16 -24 -31 -45 -34 -48 -21 -21 -97 -210 -107 -265 -5 -34 -17 -50
-30 -42 -4 3 -8 147 -8 321 l0 315 -208 3 c-114 2 -214 1 -222 -2 -8 -3 -81
-3 -162 0 -81 3 -167 4 -189 2z"/>
</g>
</svg>
