<svg width="1120" height="836" viewBox="0 0 1120 836" fill="none" xmlns="http://www.w3.org/2000/svg">
<g clip-path="url(#clip0)">
<path d="M292.609 426C410.246 426 505.609 330.637 505.609 213C505.609 95.3633 410.246 0 292.609 0C174.972 0 79.6089 95.3633 79.6089 213C79.6089 330.637 174.972 426 292.609 426Z" fill="#F2F2F2"/>
<path d="M85.833 192.339C85.833 192.339 101.249 191.864 105.894 188.556C110.54 185.248 129.607 181.298 130.76 186.603C131.912 191.909 153.927 212.991 136.523 213.132C119.118 213.272 96.0832 210.421 91.4463 207.596C86.8094 204.772 85.833 192.339 85.833 192.339Z" fill="#A8A8A8"/>
<path opacity="0.2" d="M136.833 211.285C119.429 211.425 96.3938 208.574 91.7569 205.749C88.2256 203.598 86.8185 195.88 86.3476 192.319C86.0216 192.333 85.833 192.339 85.833 192.339C85.833 192.339 86.8094 204.772 91.4463 207.596C96.0832 210.421 119.118 213.272 136.523 213.132C141.546 213.091 143.282 211.304 143.186 208.656C142.489 210.256 140.572 211.255 136.833 211.285Z" fill="black"/>
<path d="M198.609 449.94C301.886 449.94 385.609 438.55 385.609 424.5C385.609 410.45 301.886 399.06 198.609 399.06C95.3316 399.06 11.6089 410.45 11.6089 424.5C11.6089 438.55 95.3316 449.94 198.609 449.94Z" fill="#3F3D56"/>
<path opacity="0.1" d="M198.609 445.859C285.318 445.859 355.609 436.296 355.609 424.5C355.609 412.704 285.318 403.141 198.609 403.141C111.9 403.141 41.6089 412.704 41.6089 424.5C41.6089 436.296 111.9 445.859 198.609 445.859Z" fill="black"/>
<path d="M836.609 699C992.906 699 1119.61 681.763 1119.61 660.5C1119.61 639.237 992.906 622 836.609 622C680.313 622 553.609 639.237 553.609 660.5C553.609 681.763 680.313 699 836.609 699Z" fill="#3F3D56"/>
<path d="M310.609 668.627C404.497 668.627 480.609 658.273 480.609 645.5C480.609 632.727 404.497 622.373 310.609 622.373C216.72 622.373 140.609 632.727 140.609 645.5C140.609 658.273 216.72 668.627 310.609 668.627Z" fill="#3F3D56"/>
<path d="M462.609 626C552.609 649 725.609 596 744.609 536" stroke="#2F2E41" stroke-width="2" stroke-miterlimit="10"/>
<path d="M309.609 259C309.609 259 439.609 223 447.609 339C455.609 455 340.609 488 430.609 511" stroke="#2F2E41" stroke-width="2" stroke-miterlimit="10"/>
<path d="M184.011 537.283C184.011 537.283 223.084 526.463 225.488 561.328C227.892 596.192 193.328 606.111 220.379 613.023" stroke="#2F2E41" stroke-width="2" stroke-miterlimit="10"/>
<path d="M778.704 563.24L770.827 613.535C770.827 613.535 732.045 634.138 759.314 634.744C786.582 635.35 915.047 634.744 915.047 634.744C915.047 634.744 939.891 634.744 900.504 612.929L892.626 560.21L778.704 563.24Z" fill="#2F2E41"/>
<path opacity="0.1" d="M753.828 634.198C760.021 628.688 770.827 622.946 770.827 622.946L778.705 572.651L892.626 572.758L900.504 622.34C909.689 627.427 915.379 631.327 918.707 634.318C923.766 633.164 929.294 628.875 900.504 612.929L892.626 560.21L778.705 563.24L770.827 613.535C770.827 613.535 738.239 630.85 753.828 634.198Z" fill="black"/>
<path d="M1073.64 212.689H596.479C586.512 212.689 578.433 220.768 578.433 230.734V552.163C578.433 562.129 586.512 570.208 596.479 570.208H1073.64C1083.61 570.208 1091.69 562.129 1091.69 552.163V230.734C1091.69 220.768 1083.61 212.689 1073.64 212.689Z" fill="#2F2E41"/>
<path d="M1074.42 231.776H595.703V499.613H1074.42V231.776Z" fill="#3F3D56"/>
<path d="M835.06 226.323C836.733 226.323 838.089 224.966 838.089 223.293C838.089 221.62 836.733 220.263 835.06 220.263C833.386 220.263 832.03 221.62 832.03 223.293C832.03 224.966 833.386 226.323 835.06 226.323Z" fill="#F2F2F2"/>
<path d="M1091.69 520.822V552.163C1091.69 554.533 1091.22 556.879 1090.31 559.069C1089.41 561.258 1088.08 563.248 1086.4 564.924C1084.73 566.599 1082.74 567.929 1080.55 568.835C1078.36 569.742 1076.01 570.209 1073.64 570.208H596.479C594.109 570.209 591.762 569.742 589.573 568.835C587.383 567.929 585.394 566.599 583.718 564.924C582.042 563.248 580.713 561.258 579.806 559.069C578.899 556.879 578.433 554.533 578.433 552.163V520.822H1091.69Z" fill="#2F2E41"/>
<path d="M968.978 667.466V673.526H642.968V668.678L643.417 667.466L651.452 645.651H962.312L968.978 667.466Z" fill="#2F2E41"/>
<path d="M1094.44 661.534C1093.84 664.073 1091.6 666.751 1086.54 669.284C1068.36 678.374 1031.39 666.86 1031.39 666.86C1031.39 666.86 1002.91 662.012 1002.91 649.287C1003.71 648.74 1004.55 648.244 1005.41 647.803C1013.05 643.759 1038.39 633.781 1083.33 648.225C1086.64 649.264 1089.59 651.202 1091.87 653.822C1093.69 655.954 1095.12 658.657 1094.44 661.534Z" fill="#2F2E41"/>
<path opacity="0.1" d="M1094.44 661.533C1072.19 670.059 1052.35 670.696 1032 656.558C1021.73 649.432 1012.41 647.669 1005.41 647.802C1013.05 643.759 1038.39 633.781 1083.33 648.225C1086.64 649.264 1089.59 651.201 1091.87 653.822C1093.69 655.953 1095.12 658.657 1094.44 661.533Z" fill="black"/>
<path d="M1066.54 656.559C1070.89 656.559 1074.42 655.473 1074.42 654.135C1074.42 652.796 1070.89 651.711 1066.54 651.711C1062.19 651.711 1058.66 652.796 1058.66 654.135C1058.66 655.473 1062.19 656.559 1066.54 656.559Z" fill="#F2F2F2"/>
<path d="M835.059 557.18C841.418 557.18 846.573 552.026 846.573 545.667C846.573 539.308 841.418 534.154 835.059 534.154C828.701 534.154 823.546 539.308 823.546 545.667C823.546 552.026 828.701 557.18 835.059 557.18Z" fill="#F2F2F2"/>
<path opacity="0.1" d="M968.978 667.466V673.526H642.968V668.678L643.417 667.466H968.978Z" fill="black"/>
<path d="M316.609 159H108.609V401H316.609V159Z" fill="#2F2E41"/>
<path d="M337.609 135H87.6089V221H337.609V135Z" fill="#3F3D56"/>
<path d="M337.609 237H87.6089V323H337.609V237Z" fill="#3F3D56"/>
<path d="M337.609 339H87.6089V425H337.609V339Z" fill="#3F3D56"/>
<path opacity="0.4" d="M287.609 150H271.609V166H287.609V150Z" fill="#6C63FF"/>
<path opacity="0.8" d="M310.609 150H294.609V166H310.609V150Z" fill="#6C63FF"/>
<path d="M333.609 150H317.609V166H333.609V150Z" fill="#6C63FF"/>
<path opacity="0.4" d="M287.609 251H271.609V267H287.609V251Z" fill="#6C63FF"/>
<path opacity="0.8" d="M310.609 251H294.609V267H310.609V251Z" fill="#6C63FF"/>
<path d="M333.609 251H317.609V267H333.609V251Z" fill="#6C63FF"/>
<path opacity="0.4" d="M287.609 352H271.609V368H287.609V352Z" fill="#6C63FF"/>
<path opacity="0.8" d="M310.609 352H294.609V368H310.609V352Z" fill="#6C63FF"/>
<path d="M333.609 352H317.609V368H333.609V352Z" fill="#6C63FF"/>
<path d="M316.609 617C360.239 617 395.609 581.63 395.609 538C395.609 494.37 360.239 459 316.609 459C272.978 459 237.609 494.37 237.609 538C237.609 581.63 272.978 617 316.609 617Z" fill="#2F2E41"/>
<path d="M304.609 600H280.609V643H304.609V600Z" fill="#2F2E41"/>
<path d="M352.609 600H328.609V643H352.609V600Z" fill="#2F2E41"/>
<path d="M300.609 651C311.655 651 320.609 647.642 320.609 643.5C320.609 639.358 311.655 636 300.609 636C289.563 636 280.609 639.358 280.609 643.5C280.609 647.642 289.563 651 300.609 651Z" fill="#2F2E41"/>
<path d="M348.609 650C359.655 650 368.609 646.642 368.609 642.5C368.609 638.358 359.655 635 348.609 635C337.563 635 328.609 638.358 328.609 642.5C328.609 646.642 337.563 650 348.609 650Z" fill="#2F2E41"/>
<path d="M318.609 545C333.521 545 345.609 532.912 345.609 518C345.609 503.088 333.521 491 318.609 491C303.697 491 291.609 503.088 291.609 518C291.609 532.912 303.697 545 318.609 545Z" fill="white"/>
<path d="M318.609 527C323.579 527 327.609 522.971 327.609 518C327.609 513.029 323.579 509 318.609 509C313.638 509 309.609 513.029 309.609 518C309.609 522.971 313.638 527 318.609 527Z" fill="#3F3D56"/>
<path d="M239.977 464.532C233.598 435.965 253.988 407.098 285.52 400.058C317.053 393.017 347.786 410.468 354.165 439.035C360.543 467.603 339.646 478.139 308.114 485.18C276.582 492.221 246.355 493.1 239.977 464.532Z" fill="#6C63FF"/>
<path d="M390.704 522.244C410.759 513.66 424.833 501.597 422.138 495.301C419.443 489.005 401.001 490.86 380.945 499.444C360.89 508.028 346.816 520.09 349.511 526.386C352.205 532.682 370.648 530.827 390.704 522.244Z" fill="#2F2E41"/>
<path d="M242.704 575.244C262.759 566.66 276.833 554.597 274.138 548.301C271.443 542.005 253.001 543.86 232.945 552.444C212.89 561.027 198.816 573.09 201.511 579.386C204.205 585.682 222.648 583.827 242.704 575.244Z" fill="#2F2E41"/>
<path d="M362.609 561C362.609 568.732 342.7 584 320.609 584C298.517 584 277.609 569.732 277.609 562C277.609 554.268 298.517 556 320.609 556C342.7 556 362.609 553.268 362.609 561Z" fill="white"/>
<path d="M686.4 348.975V328.5H751.875V292.05H643.425V384.3C652.875 384.075 680.1 383.85 687.75 383.85C701.475 383.85 708.675 389.475 708.675 399.825C708.675 410.85 701.475 416.925 687.75 416.925C673.35 416.925 659.85 409.95 647.925 396L629.25 431.55C646.575 443.925 671.55 452.025 693.375 452.025C733.2 452.025 759.075 430.2 759.075 396.675C759.075 368.1 734.775 348.975 696.975 348.975H686.4ZM835.392 290.925C794.667 290.925 772.392 319.5 772.392 371.025C772.392 422.775 794.667 451.125 835.392 451.125C875.667 451.125 898.167 422.775 898.167 371.025C898.167 319.5 875.667 290.925 835.392 290.925ZM835.392 322.875C848.667 322.875 853.617 336.15 853.617 371.025C853.617 405.675 848.667 419.4 835.392 419.4C821.892 419.4 816.942 405.675 816.942 371.025C816.942 336.15 821.892 322.875 835.392 322.875ZM974.259 290.925C933.534 290.925 911.259 319.5 911.259 371.025C911.259 422.775 933.534 451.125 974.259 451.125C1014.53 451.125 1037.03 422.775 1037.03 371.025C1037.03 319.5 1014.53 290.925 974.259 290.925ZM974.259 322.875C987.534 322.875 992.484 336.15 992.484 371.025C992.484 405.675 987.534 419.4 974.259 419.4C960.759 419.4 955.809 405.675 955.809 371.025C955.809 336.15 960.759 322.875 974.259 322.875Z" fill="#6C63FF"/>
</g>
<path d="M134.72 759.92V816H151.36V759.92H134.72ZM190.974 771.84C184.894 771.84 180.174 774.4 177.134 779.2V772.48H160.974V816H177.134V794.48C177.134 789.52 179.854 786.08 184.254 786C188.014 786 190.494 788.72 190.494 793.04V816H206.654V788.4C206.654 778.32 200.254 771.84 190.974 771.84ZM242.073 802.8C240.153 803.52 238.393 804.08 237.113 804.08C234.873 804.08 233.433 802.72 233.433 799.92V785.04H244.153V774.72H233.433V762.64H217.353V774.72H211.353V785.04H217.353V802.4C217.353 811.44 223.593 816.8 232.873 816.72C237.273 816.72 241.913 815.68 244.953 813.92L242.073 802.8ZM270.652 771.92C256.892 771.92 247.692 780.8 247.692 794.4C247.692 807.76 256.572 816.56 271.132 816.56C279.372 816.56 285.932 813.76 290.492 808.72L282.092 800.48C279.212 803.12 275.932 804.64 272.492 804.64C268.332 804.64 265.292 802.32 264.012 798.16H293.292C294.252 782.16 285.932 771.92 270.652 771.92ZM277.372 790.24H263.692C264.492 785.84 266.972 782.88 270.812 782.88C274.732 782.88 277.452 785.92 277.372 790.24ZM315.962 779.36V772.48H299.802V816H315.962V795.2C315.962 788.88 321.322 785.36 329.642 786.4V771.84C323.722 771.84 319.002 774.56 315.962 779.36ZM365.349 771.84C359.269 771.84 354.549 774.4 351.509 779.2V772.48H335.349V816H351.509V794.48C351.509 789.52 354.229 786.08 358.629 786C362.389 786 364.869 788.72 364.869 793.04V816H381.029V788.4C381.029 778.32 374.629 771.84 365.349 771.84ZM410.048 771.84C403.248 771.84 396.208 773.44 389.088 776.32L393.088 787.04C397.888 784.96 402.768 783.92 406.208 783.92C411.168 783.92 413.728 786.08 413.728 789.68V789.84H403.088C392.128 790 386.288 794.64 386.288 803.04C386.288 811.2 391.728 816.72 401.008 816.72C406.768 816.72 411.088 814.72 413.728 811.2V816H429.568V787.76C429.568 777.68 422.288 771.84 410.048 771.84ZM406.368 806.16C403.248 806.16 401.488 804.56 401.488 801.84C401.488 799.12 403.168 797.76 406.368 797.76H413.728V801.68C412.528 804.4 409.648 806.16 406.368 806.16ZM438.561 756.64V816H454.721V756.64H438.561ZM529.103 778.48L535.263 765.68C529.183 761.76 520.383 759.2 511.823 759.2C497.823 759.2 488.623 766.08 488.623 776.88C488.623 796.64 517.903 791.28 517.903 799.76C517.903 802.32 515.663 803.52 512.143 803.52C506.383 803.52 497.023 799.84 491.263 794.96L485.023 807.6C492.063 813.12 502.463 816.48 511.983 816.48C524.543 816.48 535.103 810.8 535.103 798.88C535.103 778.64 505.823 783.52 505.823 775.28C505.823 773.2 507.663 772.24 510.463 772.24C515.183 772.24 523.343 775.2 529.103 778.48ZM560.964 771.92C547.204 771.92 538.004 780.8 538.004 794.4C538.004 807.76 546.884 816.56 561.444 816.56C569.684 816.56 576.244 813.76 580.804 808.72L572.404 800.48C569.524 803.12 566.244 804.64 562.804 804.64C558.644 804.64 555.604 802.32 554.324 798.16H583.604C584.564 782.16 576.244 771.92 560.964 771.92ZM567.684 790.24H554.004C554.804 785.84 557.284 782.88 561.124 782.88C565.044 782.88 567.764 785.92 567.684 790.24ZM606.274 779.36V772.48H590.114V816H606.274V795.2C606.274 788.88 611.634 785.36 619.954 786.4V771.84C614.034 771.84 609.314 774.56 606.274 779.36ZM621.86 772.48L638.02 816H654.5L670.74 772.48H654.58L646.5 801.28L638.5 772.48H621.86ZM693.23 771.92C679.47 771.92 670.27 780.8 670.27 794.4C670.27 807.76 679.15 816.56 693.71 816.56C701.95 816.56 708.51 813.76 713.07 808.72L704.67 800.48C701.79 803.12 698.51 804.64 695.07 804.64C690.91 804.64 687.87 802.32 686.59 798.16H715.87C716.83 782.16 708.51 771.92 693.23 771.92ZM699.95 790.24H686.27C687.07 785.84 689.55 782.88 693.39 782.88C697.31 782.88 700.03 785.92 699.95 790.24ZM738.54 779.36V772.48H722.38V816H738.54V795.2C738.54 788.88 743.9 785.36 752.22 786.4V771.84C746.3 771.84 741.58 774.56 738.54 779.36ZM781.751 759.92V816H828.391V803.2H798.391V794.32H824.871V781.52H798.391V772.72H827.591V759.92H781.751ZM852.681 779.36V772.48H836.521V816H852.681V795.2C852.681 788.88 858.041 785.36 866.361 786.4V771.84C860.441 771.84 855.721 774.56 852.681 779.36ZM888.228 779.36V772.48H872.068V816H888.228V795.2C888.228 788.88 893.588 785.36 901.908 786.4V771.84C895.988 771.84 891.268 774.56 888.228 779.36ZM928.494 771.92C913.854 771.92 904.254 780.72 904.254 794.24C904.254 807.68 913.854 816.56 928.494 816.56C943.134 816.56 952.654 807.68 952.654 794.24C952.654 780.72 943.134 771.92 928.494 771.92ZM928.494 784.72C933.214 784.72 936.334 788.64 936.334 794.4C936.334 800.24 933.214 804.08 928.494 804.08C923.694 804.08 920.574 800.24 920.574 794.4C920.574 788.64 923.694 784.72 928.494 784.72ZM975.181 779.36V772.48H959.021V816H975.181V795.2C975.181 788.88 980.541 785.36 988.861 786.4V771.84C982.941 771.84 978.221 774.56 975.181 779.36Z" fill="#3F3D56"/>
<defs>
<clipPath id="clip0">
<rect width="1119.61" height="699" fill="white"/>
</clipPath>
</defs>
</svg>
